<?xml version="1.0" encoding="UTF-8"?>
<svg width="66px" height="46px" viewBox="0 0 66 46" version="1.1" xmlns="http://www.w3.org/2000/svg" xmlns:xlink="http://www.w3.org/1999/xlink">
    <!-- Generator: Sketch 52.5 (67469) - http://www.bohemiancoding.com/sketch -->
    <title>Discover_unselected</title>
    <desc>Created with Sketch.</desc>
    <defs>
        <polygon id="path-1" points="0 0 49.7345158 0 49.7345158 13.7418033 0 13.7418033"></polygon>
        <polygon id="path-3" points="0 0 0 13.7418033 49.7466216 13.7418033 49.7466216 0"></polygon>
        <path d="M0.0149493243,4.28669672 C0.0149493243,4.28669672 0.0149493243,4.28669672 0.0149493243,4.28927869 C0.0149493243,6.64139344 1.88735923,8.54952459 4.19569257,8.54952459 C6.50647523,8.54952459 8.37894144,6.64139344 8.37894144,4.28927869 C8.37894144,4.28669672 8.37894144,4.28669672 8.37894144,4.28669672 C8.37894144,1.93446721 6.50647523,0.0264508197 4.19569257,0.0264508197 C1.88735923,0.0264508197 0.0149493243,1.93446721 0.0149493243,4.28669672" id="path-5"></path>
    </defs>
    <g id="Discover_unselected" stroke="none" stroke-width="1" fill="none" fill-rule="evenodd">
        <g id="Discover-">
            <path d="M0.5,3.00044415 L0.5,42.9995558 C0.5,44.3749492 1.62546767,45.5 3.00738502,45.5 L62.992615,45.5 C64.3765124,45.5 65.5,44.3795764 65.5,42.9995558 L65.5,3.00044415 C65.5,1.62505085 64.3745323,0.5 62.992615,0.5 L3.00738502,0.5 C1.62348762,0.5 0.5,1.6204236 0.5,3.00044415 Z" id="Rectangle-Copy-10" stroke="#C6C6C6"></path>
            <g id="Discover_Card_logo" transform="translate(8.000000, 18.000000)">
                <g id="g10" transform="translate(25.168039, 7.858591) scale(-1, 1) rotate(-180.000000) translate(-25.168039, -7.858591) translate(0.168039, 0.858591)">
                    <g id="g12">
                        <g id="g14">
                            <g id="g16-Clipped">
                                <mask id="mask-2" fill="white">
                                    <use xlink:href="#path-1"></use>
                                </mask>
                                <g id="path20"></g>
                                <g id="g16" mask="url(#mask-2)" fill="#C6C6C6">
                                    <g transform="translate(0.056306, 5.278689)">
                                        <path d="M4.04293356,2.21753689 C3.56114865,1.77421311 2.93530405,1.58079508 1.94454673,1.58079508 L1.53302646,1.58079508 L1.53302646,6.87795902 L1.94454673,6.87795902 C2.93530405,6.87795902 3.53651464,6.69730738 4.04293356,6.23011475 C4.57322635,5.74892213 4.89225788,5.00333607 4.89225788,4.23591803 C4.89225788,3.46695082 4.57322635,2.69852869 4.04293356,2.21753689 Z M2.25170327,8.23518443 L0.000879786036,8.23518443 L0.000879786036,0.224688525 L2.23982545,0.224688525 C3.43040541,0.224688525 4.29006194,0.510913934 5.04470721,1.14943443 C5.94141329,1.90566393 6.47170608,3.04545902 6.47170608,4.22438525 C6.47170608,6.58837705 4.73842905,8.23518443 2.25170327,8.23518443 Z" id="path22" fill-rule="nonzero"></path>
                                        <polygon id="path24" fill-rule="evenodd" points="7.17730856 0.224688525 8.71066441 0.224688525 8.71066441 8.23518443 7.17730856 8.23518443"></polygon>
                                        <path d="M12.4599662,5.1612377 C11.5398367,5.50819672 11.2696227,5.73704508 11.2696227,6.16984016 C11.2696227,6.67432787 11.7509854,7.05772131 12.4119088,7.05772131 C12.8713682,7.05772131 13.2489302,6.86542213 13.6484516,6.40895902 L14.4507038,7.47952869 C13.7914133,8.06718443 13.0025901,8.36763934 12.1407095,8.36763934 C10.7498874,8.36763934 9.68896396,7.38336475 9.68896396,6.07232787 C9.68896396,4.96870902 10.1829673,4.40368852 11.6230856,3.87553279 C12.2233108,3.65979508 12.5288007,3.51603689 12.6829955,3.41932787 C12.9893863,3.21546721 13.1427928,2.92688934 13.1427928,2.5904877 C13.1427928,1.94140984 12.6363739,1.46053279 11.9522241,1.46053279 C11.2208896,1.46053279 10.6317849,1.8332541 10.2787725,2.52895082 L9.28811937,1.5570123 C9.99459459,0.500270492 10.8430462,0.0319303279 12.009741,0.0319303279 C13.6032658,0.0319303279 14.7210304,1.11156557 14.7210304,2.66232377 C14.7210304,3.93503279 14.2042511,4.51115574 12.4599662,5.1612377" id="path26" fill-rule="evenodd"></path>
                                        <path d="M15.204786,4.22438525 C15.204786,1.86980328 17.0191441,0.0440368852 19.3540822,0.0440368852 C20.0141329,0.0440368852 20.5793919,0.176290984 21.2765203,0.510913934 L21.2765203,2.35022131 C20.6635417,1.7250123 20.1206081,1.47286885 19.4253378,1.47286885 C17.8811092,1.47286885 16.7849944,2.61378279 16.7849944,4.23591803 C16.7849944,5.77390984 17.9157376,6.98711885 19.3540822,6.98711885 C20.0854167,6.98711885 20.6390203,6.72117623 21.2765203,6.08578279 L21.2765203,7.92420082 C20.603491,8.27216393 20.05,8.41626639 19.390259,8.41626639 C17.0672016,8.41626639 15.204786,6.55354918 15.204786,4.22438525" id="path28" fill-rule="evenodd"></path>
                                        <polyline id="path30" fill-rule="evenodd" points="33.4344032 2.8545082 31.3381194 8.23518443 29.6630068 8.23518443 32.9988739 0.0191639344 33.8240428 0.0191639344 37.2201577 8.23518443 35.5579955 8.23518443 33.4344032 2.8545082"></polyline>
                                        <polyline id="path32" fill-rule="evenodd" points="37.9135698 0.224688525 42.2621059 0.224688525 42.2621059 1.58079508 39.4456644 1.58079508 39.4456644 3.74307787 42.1582207 3.74307787 42.1582207 5.09995902 39.4456644 5.09995902 39.4456644 6.87795902 42.2621059 6.87795902 42.2621059 8.23518443 37.9135698 8.23518443 37.9135698 0.224688525"></polyline>
                                        <path d="M45.2570383,4.5472459 L44.8091216,4.5472459 L44.8091216,6.97343443 L45.28125,6.97343443 C46.236205,6.97343443 46.7553491,6.5657418 46.7553491,5.78613115 C46.7553491,4.98081557 46.236205,4.5472459 45.2570383,4.5472459 Z M48.3333333,5.87027459 C48.3333333,7.36993852 47.3195383,8.23518443 45.5512387,8.23518443 L43.2775901,8.23518443 L43.2775901,0.224688525 L44.8091216,0.224688525 L44.8091216,3.44262295 L45.009009,3.44262295 L47.1314752,0.224688525 L49.0171734,0.224688525 L46.5425113,3.59940574 C47.6973536,3.83866803 48.3333333,4.64372541 48.3333333,5.87027459 Z" id="path34" fill-rule="nonzero"></path>
                                        <path d="M49.1874717,8.04499115 L49.1355979,8.04499115 L49.1355979,8.32643126 L49.1906155,8.32643126 C49.3425689,8.32643126 49.4211655,8.28066543 49.4211655,8.18794904 C49.4211655,8.09264378 49.341521,8.04499115 49.1874717,8.04499115 Z M49.7282161,8.19189815 C49.7282161,8.40664213 49.5516358,8.52406242 49.2414413,8.52406242 L48.8285473,8.52406242 L48.8285473,7.44713934 L49.1355979,7.44713934 L49.1355979,7.86482385 L49.4955703,7.44713934 L49.870214,7.44713934 L49.4473644,7.89123902 C49.6281365,7.93204652 49.7282161,8.04240229 49.7282161,8.19189815 Z" id="path36" fill-rule="nonzero"></path>
                                        <path d="M49.0813626,7.29640984 C48.817286,7.29640984 48.6013514,7.52032377 48.6013514,7.79969262 C48.6013514,8.08006557 48.8144707,8.30386475 49.0813626,8.30386475 C49.3440315,8.30386475 49.558277,8.07493033 49.558277,7.79969262 C49.558277,7.52267623 49.3440315,7.29640984 49.0813626,7.29640984 Z M49.0836149,8.41437295 C48.7480293,8.41437295 48.4817005,8.1414877 48.4817005,7.80058197 C48.4817005,7.45990574 48.7511261,7.18670492 49.0836149,7.18670492 C49.410473,7.18670492 49.6782095,7.46283197 49.6782095,7.80058197 C49.6782095,8.13666803 49.410473,8.41437295 49.0836149,8.41437295 Z" id="path38" fill-rule="nonzero"></path>
                                    </g>
                                </g>
                            </g>
                        </g>
                        <g id="g66">
                            <g id="g68-Clipped">
                                <mask id="mask-4" fill="white">
                                    <use xlink:href="#path-3"></use>
                                </mask>
                                <g id="path72"></g>
                                <g id="g68" mask="url(#mask-4)">
                                    <g transform="translate(21.818694, 5.192623)" id="g74-Clipped">
                                        <g>
                                            <mask id="mask-6" fill="white">
                                                <use xlink:href="#path-5"></use>
                                            </mask>
                                            <use id="path78" fill="#C6C6C6" xlink:href="#path-5"></use>
                                            <g id="g74" mask="url(#mask-6)">
                                                <g transform="translate(-0.112613, -0.086066)" id="g80">
                                                    <g transform="translate(0.025338, 0.025820)"></g>
                                                </g>
                                            </g>
                                        </g>
                                    </g>
                                </g>
                            </g>
                        </g>
                    </g>
                </g>
            </g>
        </g>
    </g>
</svg>