<?xml version="1.0" encoding="UTF-8"?>
<svg width="940px" height="460px" viewBox="0 0 940 460" version="1.1" xmlns="http://www.w3.org/2000/svg" xmlns:xlink="http://www.w3.org/1999/xlink">
    <!-- Generator: Sketch 52.5 (67469) - http://www.bohemiancoding.com/sketch -->
    <title>logo copy 4</title>
    <desc>Created with Sketch.</desc>
    <defs>
        <linearGradient x1="100%" y1="50%" x2="0%" y2="50%" id="linearGradient-1">
            <stop stop-color="#27B2E7" offset="0%"></stop>
            <stop stop-color="#117ACA" offset="100%"></stop>
        </linearGradient>
    </defs>
    <g id="logo-copy-4" stroke="none" stroke-width="1" fill="none" fill-rule="evenodd">
        <path d="M19.9999981,49.9999986 C19.9999981,33.4314561 33.4314556,19.9999986 49.9999981,19.9999986 L890,19.9999986 C906.568542,19.9999986 920,33.4314561 920,50 C920,66.5685425 906.568542,80 890,80 L650,80 C633.431458,80 620,93.4314575 620,110 C620,126.568542 633.431458,140 650,140 L830,140 C846.568542,140 860,153.431458 860,170 C860,186.568542 846.568542,200 830,200 L650,200 C633.431458,200 620,213.431458 620,230 C620,246.568542 633.431458,260 650,260 L770,260 C786.568542,260 800,273.431458 800,290 C800,306.568542 786.568542,320 770,320 L650,320 C633.431458,320 620,333.431458 620,350 C620,366.568542 633.431458,380 650,380 L710,380 C726.568542,380 740,393.431458 740,410 C740,426.568542 726.568542,440 710,440 L49.9999981,440 C33.4314556,440 19.9999981,426.568542 19.9999981,410 L19.9999981,49.9999986 Z M560,140 L560,110 C560,93.4314575 546.568542,80 530,80 L110,80 C93.4314575,80 80,93.4314575 80,110 L80,140 L560,140 Z M560,200 L80,200 L80,350 C80,366.568542 93.4314575,380 110,380 L530,380 C546.568542,380 560,366.568542 560,350 L560,200 Z M135,240 L185,240 C193.284271,240 200,246.715729 200,255 L200,285 C200,293.284271 193.284271,300 185,300 L135,300 C126.715729,300 120,293.284271 120,285 L120,255 C120,246.715729 126.715729,240 135,240 Z M290,300 L490,300 C495.522847,300 500,304.477153 500,310 L500,330 C500,335.522847 495.522847,340 490,340 L290,340 C284.477153,340 280,335.522847 280,330 L280,310 C280,304.477153 284.477153,300 290,300 Z" id="Combined-Shape" fill="url(#linearGradient-1)"></path>
    </g>
</svg>