<?xml version="1.0" encoding="UTF-8"?>
<svg width="940px" height="460px" viewBox="0 0 940 460" version="1.1" xmlns="http://www.w3.org/2000/svg" xmlns:xlink="http://www.w3.org/1999/xlink">
    <!-- Generator: Sketch 52.5 (67469) - http://www.bohemiancoding.com/sketch -->
    <title>logo copy 3</title>
    <desc>Created with Sketch.</desc>
    <defs>
        <linearGradient x1="50%" y1="-2.48949813e-15%" x2="50%" y2="98.2071893%" id="linearGradient-1">
            <stop stop-color="#FFFFFF" offset="0%"></stop>
            <stop stop-color="#C9C9C9" offset="100%"></stop>
        </linearGradient>
    </defs>
    <g id="logo-copy-3" stroke="none" stroke-width="1" fill="none" fill-rule="evenodd">
        <path d="M19.9999998,50 C19.9999998,33.4314575 33.4314573,20 49.9999998,20 L770,20 C786.568542,20 800,33.4314575 800,50 C800,66.5685425 786.568542,80 770,80 L710,80 C693.431458,80 680,93.4314575 680,110 C680,126.568542 693.431458,140 710,140 L810,140 C826.568542,140 840,153.431458 840,170 C840,186.568542 826.568542,200 810,200 L650,200 C633.431458,200 620,213.431458 620,230 C620,246.568542 633.431458,260 650,260 L781.25,260 C797.818542,260 811.25,273.431458 811.25,290 C811.25,306.568542 797.818542,320 781.25,320 L670,320 C653.431458,320 640,333.431458 640,350 C640,366.568542 653.431458,380 670,380 L890,380 C906.568542,380 920,393.431458 920,410 C920,426.568543 906.568542,440 890,440 L49.9999998,440 C33.4314573,440 19.9999998,426.568543 19.9999998,410 L19.9999998,50 Z M560,140 L560,110 C560,93.4314575 546.568542,80 530,80 L110,80 C93.4314575,80 80,93.4314575 80,110 L80,140 L560,140 Z M560,200 L80,200 L80,350 C80,366.568542 93.4314575,380 110,380 L530,380 C546.568542,380 560,366.568542 560,350 L560,200 Z M135,240 L185,240 C193.284271,240 200,246.715729 200,255 L200,285 C200,293.284271 193.284271,300 185,300 L135,300 C126.715729,300 120,293.284271 120,285 L120,255 C120,246.715729 126.715729,240 135,240 Z M290,300 L490,300 C495.522847,300 500,304.477153 500,310 L500,330 C500,335.522847 495.522847,340 490,340 L290,340 C284.477153,340 280,335.522847 280,330 L280,310 C280,304.477153 284.477153,300 290,300 Z" id="Combined-Shape" fill="url(#linearGradient-1)"></path>
        <text id="'../components/seo'" font-family="IBMPlexSans-SemiBold, IBM Plex Sans SemiBold" font-size="48" font-weight="500" fill="#FFFFFF">
            <tspan x="0.196" y="49">'../components/seo'</tspan>
        </text>
    </g>
</svg>