<?xml version="1.0" encoding="UTF-8"?>
<svg width="60px" height="20px" viewBox="0 0 60 20" version="1.1" xmlns="http://www.w3.org/2000/svg" xmlns:xlink="http://www.w3.org/1999/xlink">
    <!-- Generator: Sketch 52.5 (67469) - http://www.bohemiancoding.com/sketch -->
    <title>Visa </title>
    <desc>Created with Sketch.</desc>
    <g id="Symbols" stroke="none" stroke-width="1" fill="none" fill-rule="evenodd">
        <g id="Icon/white/Visa" transform="translate(-3.000000, -13.000000)" fill="#FFFFFF">
            <g id="Visa-">
                <g id="Visa_Inc._logo" transform="translate(3.000000, 13.454545)">
                    <polygon id="polygon9" points="25.93956 18.741807 21.1127038 18.741807 24.1317655 0.561649769 28.9583576 0.561649769"></polygon>
                    <path d="M43.4373423,1.00610274 C42.4852742,0.638252999 40.9752154,0.232101644 39.1080322,0.232101644 C34.3413567,0.232101644 30.9847028,2.70756845 30.9641147,6.24674052 C30.9245222,8.85793386 33.3673807,10.3082541 35.1944435,11.1789089 C37.0618907,12.068586 37.6966908,12.6492796 37.6966908,13.442303 C37.6776864,14.660243 36.1876879,15.2216573 34.7979904,15.2216573 C32.8708905,15.2216573 31.8383176,14.9322101 30.269134,14.2546057 L29.6335421,13.9641304 L28.9580937,18.0451803 C30.0901758,18.5474713 32.1759098,18.9932096 34.3413567,19.012746 C39.4060319,19.012746 42.703297,16.5755808 42.7423616,12.8040285 C42.76163,10.7344559 41.4717057,9.14866625 38.690727,7.85283778 C37.002502,7.02099867 35.9686093,6.46009851 35.9686093,5.60898007 C35.9884055,4.83523603 36.8430761,4.04272677 38.7487961,4.04272677 C40.3179796,4.00391104 41.4709138,4.37124666 42.3443248,4.73883935 L42.7808983,4.93188977 L43.4373423,1.00610274 Z" id="path11"></path>
                    <path d="M49.8526503,12.3012234 C50.2501592,11.2567974 51.7797503,7.21456321 51.7797503,7.21456321 C51.7596901,7.25337894 52.1764673,6.15085795 52.4148143,5.47402471 L52.7521426,7.04053507 C52.7521426,7.04053507 53.6662019,11.3922669 53.8646924,12.3012234 C53.1103229,12.3012234 50.8060382,12.3012234 49.8526503,12.3012234 Z M55.8107967,0.561649769 L52.0772221,0.561649769 C50.9258716,0.561649769 50.0511408,0.890169663 49.5543867,2.07006506 L42.3847092,18.74155 L47.4493844,18.74155 C47.4493844,18.74155 48.2832028,16.4976923 48.462425,16.0144236 C49.01804,16.0144236 53.9449332,16.0144236 54.6597102,16.0144236 C54.798284,16.6526981 55.2356494,18.74155 55.2356494,18.74155 L59.7048531,18.74155 L55.8107967,0.561649769 Z" id="path13" fill-rule="nonzero"></path>
                    <path d="M17.0811295,0.561649769 L12.3540465,12.9587773 L11.8374961,10.4444947 C10.9635572,7.54334016 8.22269899,4.39129717 5.16404483,2.82401564 L9.49388284,18.7225277 L14.5981506,18.7225277 L22.1851332,0.561649769 L17.0811295,0.561649769 Z" id="path15"></path>
                    <path d="M7.96455576,0.561649769 L0.198614884,0.561649769 L0.119165894,0.928985394 C6.17708544,2.43765774 10.1891275,6.07425472 11.8374961,10.4452659 L10.149271,2.08985851 C9.87133153,0.928728336 9.0171889,0.599951384 7.96455576,0.561649769 Z" id="path17"></path>
                </g>
            </g>
        </g>
    </g>
</svg>