<?xml version="1.0" encoding="UTF-8"?>
<svg width="66px" height="46px" viewBox="0 0 66 46" version="1.1" xmlns="http://www.w3.org/2000/svg" xmlns:xlink="http://www.w3.org/1999/xlink">
    <!-- Generator: Sketch 52.5 (67469) - http://www.bohemiancoding.com/sketch -->
    <title>Visa_unselected</title>
    <desc>Created with Sketch.</desc>
    <g id="Visa_unselected" stroke="none" stroke-width="1" fill="none" fill-rule="evenodd">
        <g id="Visa-">
            <path d="M14.8072488,18.1454193 L17.9621807,29.7298536 L21.7053104,29.7298536 L27.2690977,16.4118765 L23.5261616,16.4118765 L20.0596341,25.5031033 L19.6808305,23.6592961 C19.6807149,23.6589126 19.6805993,23.658529 19.6804837,23.6581454 L18.4427988,17.5325629 C18.2389765,16.6810674 17.6126052,16.4399643 16.8406742,16.4118765 L11.1456509,16.4118765 L11.0873883,16.681256 C12.4763833,17.0271731 13.7187111,17.5256392 14.8072488,18.1454193 Z M0,3.00044415 C0,1.34334461 1.34828267,0 3.00738502,0 L62.992615,0 C64.6535479,0 66,1.35178054 66,3.00044415 L66,42.9995558 C66,44.6566554 64.6517173,46 62.992615,46 L3.00738502,46 C1.34645213,46 0,44.6482195 0,42.9995558 L0,3.00044415 Z M30.022344,29.7439918 L32.2361289,16.4118765 L28.696628,16.4118765 L26.4826495,29.7439918 L30.022344,29.7439918 Z M42.854051,16.7378087 C42.1558677,16.4680522 41.0484913,16.1702079 39.6792236,16.1702079 C36.1836616,16.1702079 33.7221154,17.9855502 33.7070175,20.580943 C33.677983,22.4958182 35.4694125,23.5593863 36.8092586,24.1978665 C38.1787199,24.8502964 38.6442399,25.2761384 38.6442399,25.8576889 C38.6303034,26.7508448 37.5376378,27.1625487 36.5185263,27.1625487 C35.1053197,27.1625487 34.3480996,26.9502874 33.1973649,26.4533775 L32.7312642,26.2403623 L32.2359354,29.2331323 C33.0661289,29.601479 34.5956672,29.9283537 36.1836616,29.9426804 C39.8977567,29.9426804 42.3157511,28.1554259 42.3443985,25.3896209 C42.3585286,23.8719344 41.4125841,22.7090219 39.3731998,21.7587477 C38.1351681,21.1487324 37.3769801,20.7374056 37.3769801,20.113252 C37.3914974,19.5458398 38.0182558,18.9646663 39.4157838,18.9646663 C40.5665184,18.9362014 41.4120035,19.2055809 42.0525049,19.4751489 L42.3726588,19.6167192 L42.854051,16.7378087 Z M47.5586102,25.0208971 C47.8501168,24.2549848 48.9718169,21.2906797 48.9718169,21.2906797 C48.957106,21.3191446 49.2627427,20.5106292 49.4375305,20.0142848 L49.6849046,21.163059 C49.6849046,21.163059 50.3552147,24.3543291 50.5007744,25.0208971 C49.9475701,25.0208971 48.2577614,25.0208971 47.5586102,25.0208971 Z M51.9279176,16.4118765 L49.1899629,16.4118765 C48.3456392,16.4118765 47.70417,16.6527911 47.3398836,17.5180477 L42.0821201,29.7438033 L45.7962152,29.7438033 C45.7962152,29.7438033 46.4076821,28.0983077 46.5391117,27.7439106 C46.9465627,27.7439106 50.5596177,27.7439106 51.0837875,27.7439106 C51.1854083,28.2119786 51.5061429,29.7438033 51.5061429,29.7438033 L54.7835589,29.7438033 L51.9279176,16.4118765 Z" id="Combined-Shape" fill="#C6C6C6"></path>
            <g id="Visa_Inc._logo" transform="translate(11.000000, 16.000000)"></g>
        </g>
    </g>
</svg>